<svg xmlns="http://www.w3.org/2000/svg" viewBox="0 0 23.6 23.6">
  <title>about</title>
  <path d="M11.8,0A11.8,11.8,0,1,0,23.6,11.8,11.8,11.8,0,0,0,11.8,0Zm2.5,18.3-1.5.5-1.3.2a2.5,2.5,0,0,1-1.7-.5,1.7,1.7,0,0,1-.6-1.4,5,5,0,0,1,0-.7V15.7L10.2,13l0.2-.7a3.2,3.2,0,0,0,.1-0.6,1,1,0,0,0-.2-0.7l-0.8-.2H8.8L8.3,11l0.2-.8,1.4-.5,1.3-.2a2.5,2.5,0,0,1,1.7.5,1.8,1.8,0,0,1,.6,1.4q0,0.2,0,.6a4.1,4.1,0,0,1-.2.8l-0.8,2.7-0.2.7a3.9,3.9,0,0,0-.1.6,0.9,0.9,0,0,0,.2.7l0.8,0.2H14l0.5-.2ZM14.1,7.4a1.8,1.8,0,0,1-1.3.5,1.8,1.8,0,0,1-1.3-.5A1.6,1.6,0,0,1,11,6.2,1.6,1.6,0,0,1,11.6,5a1.8,1.8,0,0,1,1.3-.5,1.8,1.8,0,0,1,1.3.5A1.6,1.6,0,0,1,14.1,7.4Z"/>
</svg>
